<svg xmlns="http://www.w3.org/2000/svg" xmlns:xlink="http://www.w3.org/1999/xlink" id="body_1" width="800" height="800"><defs><clipPath id="1"><path id="" clip-rule="evenodd" transform="matrix(1 0 0 1 0 0)" d="M0 600L0 0L0 0L600 0L600 0L600 600L600 600L0 600z" /></clipPath></defs><g transform="matrix(1.333333 0 0 1.333333 0 0)"><g clip-path="url(#1)"><path id="1" transform="matrix(1 0 0 -1 0 600)" d="M239.8 102.7999C 239.5 79.99993 239.4 78.29993 237.3 74.29993L237.3 74.29993L237.3 74.29993C 234.9 69.89993 228.5 63.99994 226 63.99994L226 63.99994L226 63.99994C 225.2 63.99994 222 65.19994 219 66.59994L219 66.59994L213.5 69.19994L213.5 69.19994L216 70.79993L216 70.79993L216 70.79993C 220.4 73.69994 223.9 77.99993 225 81.79993L225 81.79993L225 81.79993C 225.5 83.79993 226 94.49993 226 105.5999L226 105.5999L226 105.5999C 226 116.5999 226.3 125.9999 226.7 126.2999L226.7 126.2999L226.7 126.2999C 227 126.6999 230.2 126.9999 233.7 126.9999L233.7 126.9999L240.2 126.9999L240.2 126.9999L239.8 102.7999zM410.1 126.4999C 418.8 123.3999 423.3 116.0999 423.3 104.9999L423.3 104.9999L423.3 104.9999C 423.3 97.09993 420.7 90.59993 416 86.59994L416 86.59994L416 86.59994C 411.4 82.79993 408.6 81.89993 401.3 81.79993L401.3 81.79993L401.3 81.79993C 386.5 81.69994 377.8 91.99993 379.4 107.3999L379.4 107.3999L379.4 107.3999C 380.1 113.8999 383.2 120.2999 387.1 123.1999L387.1 123.1999L387.1 123.1999C 393.3 127.8999 402.5 129.0999 410.1 126.4999zM371.9 126.9999C 376 126.3999 379.6 125.7999 379.8 125.4999L379.8 125.4999L379.8 125.4999C 380.8 124.4999 376 115.9999 374.5 115.9999L374.5 115.9999L374.5 115.9999C 373.3 115.9999 373.1 113.2999 373.2 97.79993L373.2 97.79993L373.2 97.79993C 373.3 85.79993 372.9 77.99993 372.1 75.19994L372.1 75.19994L372.1 75.19994C 370.4 69.29993 365 63.49994 359.3 61.59993L359.3 61.59993L359.3 61.59993C 354 59.79993 342.3 59.49994 336.8 61.09993L336.8 61.09993L333 62.09993L333 62.09993L333 68.49993L333 68.49993L333 68.49993C 333 72.09994 333.2 74.99993 333.4 74.99993L333.4 74.99993L333.4 74.99993C 333.6 74.99993 335.4 74.29993 337.3 73.49993L337.3 73.49993L337.3 73.49993C 339.3 72.69994 343.9 71.99993 347.4 71.99993L347.4 71.99993L347.4 71.99993C 355.2 71.99993 358.7 74.29993 359.7 80.19994L359.7 80.19994L360.2 83.89993L360.2 83.89993L356.4 82.89993L356.4 82.89993L356.4 82.89993C 347.8 80.49993 338.4 84.59994 334.5 92.39993L334.5 92.39993L334.5 92.39993C 328.6 104.1999 333.2 118.5999 344.5 123.8999L344.5 123.8999L344.5 123.8999C 352.2 127.4999 360.5 128.4999 371.9 126.9999zM320.5 125.3999C 326.9 122.3999 327.5 120.5999 327.8 100.7999L327.8 100.7999L328.2 82.99993L328.2 82.99993L321.1 82.99993L321.1 82.99993L314 82.99993L314 82.99993L314 98.29993L314 98.29993L314 98.29993C 314 108.8999 313.6 113.9999 312.8 114.7999L312.8 114.7999L312.8 114.7999C 312.1 115.4999 309.4 115.9999 306.8 115.9999L306.8 115.9999L302 115.9999L302 115.9999L302 99.49993L302 99.49993L302 82.99993L302 82.99993L295 82.99993L295 82.99993L288 82.99993L288 82.99993L288 103.8999L288 103.8999L288 124.8999L288 124.8999L293.3 125.8999L293.3 125.8999L293.3 125.8999C 296.1 126.4999 299.9 127.0999 301.5 127.3999L301.5 127.3999L301.5 127.3999C 306.8 128.1999 316.9 127.0999 320.5 125.3999zM273.2 126.7999C 280.6 124.5999 281 123.2999 281 101.9999L281 101.9999L281 83.29993L281 83.29993L274.9 82.59994L274.9 82.59994L274.9 82.59994C 258.8 80.99993 250.8 82.39993 247.4 87.49993L247.4 87.49993L247.4 87.49993C 245.1 90.99993 245.1 98.89993 247.3 102.3999L247.3 102.3999L247.3 102.3999C 249.4 105.4999 255.1 108.5999 260.5 109.4999L260.5 109.4999L260.5 109.4999C 268.2 110.6999 269 110.9999 269 112.7999L269 112.7999L269 112.7999C 269 117.9999 261.2 118.2999 249.8 113.4999L249.8 113.4999L249.8 113.4999C 248.2 112.8999 248 113.3999 248 118.2999L248 118.2999L248 123.7999L248 123.7999L252.8 125.3999L252.8 125.3999L252.8 125.3999C 261.4 128.0999 267.4 128.5999 273.2 126.7999zM240 140.9999L240 133.9999L233 133.9999L226 133.9999L226 140.9999L226 147.9999L233 147.9999L240 147.9999L240 140.9999zM219 115.9999L219 115.9999L219 115.9999L219 84.09994L219 84.09994L215.3 83.29993L215.3 83.29993L215.3 83.29993C 213.2 82.89993 207 82.49993 201.5 82.49993L201.5 82.49993L201.5 82.49993C 193 82.49993 190.8 82.89993 186.7 84.89993L186.7 84.89993L186.7 84.89993C 179.8 88.29993 176.7 93.39993 176.2 101.9999L176.2 101.9999L176.2 101.9999C 175.3 117.8999 183.4 127.1999 198.2 127.3999L198.2 127.3999L205 127.4999L205 127.4999L205 137.7999L205 137.7999L205 147.9999L205 147.9999L212 147.9999L212 147.9999L219 147.9999L219 147.9999L219 115.9999zM338.5 591.8999C 355 591.3999 373 590.4999 378.5 589.9999L378.5 589.9999L378.5 589.9999C 399.4 587.9999 409.7 586.8999 415 585.9999L415 585.9999L415 585.9999C 418 585.4999 425 584.3999 430.5 583.4999L430.5 583.4999L430.5 583.4999C 459.8 578.7999 476 572.9999 484.4 563.9999L484.4 563.9999L484.4 563.9999C 486.9 561.3999 489.3 557.4999 489.9 555.3999L489.9 555.3999L489.9 555.3999C 490.7 552.6999 491 495.5999 491 366.1999L491 366.1999L491 180.9999L491 180.9999L299.8 181.1999L299.8 181.1999L108.5 181.4999L108.5 181.4999L108.5 367.9999L108.5 367.9999L108.5 554.4999L108.5 554.4999L110.7 558.5999L110.7 558.5999L110.7 558.5999C 117.9 572.0999 138 579.4999 184.5 585.8999L184.5 585.8999L184.5 585.8999C 231 592.1999 273.5 593.8999 338.5 591.8999zM260.5 596.3999C 258.3 596.1999 247.3 595.5999 236 594.9999L236 594.9999L236 594.9999C 209.3 593.5999 190.2 591.3999 160.5 586.3999L160.5 586.3999L160.5 586.3999C 136.7 582.3999 120.5 576.1999 112 567.8999L112 567.8999L112 567.8999C 103.2 559.2999 103.9 586.5999 104.2 294.9999L104.2 294.9999L104.5 36.49994L104.5 36.49994L107.8 31.79994L107.8 31.79994L107.8 31.79994C 114.7 21.79994 130.3 14.39994 154.5 9.699939L154.5 9.699939L154.5 9.699939C 166.3 7.399939 194.6 3.099939 210 1.399939L210 1.399939L210 1.399939C 221 0.09993896 365.9 -0.300061 380.5 0.8999389L380.5 0.8999389L380.5 0.8999389C 415.7 3.799939 452.8 10.19994 467.5 15.69994L467.5 15.69994L467.5 15.69994C 478.9 20.09994 487.7 25.99994 491.8 32.19994L491.8 32.19994L494.5 36.39994L494.5 36.39994L494.8 294.8999L494.8 294.8999L494.8 294.8999C 495 488.9999 494.8 554.5999 493.9 557.6999L493.9 557.6999L493.9 557.6999C 491.6 566.1999 481 574.6999 466.5 579.6999L466.5 579.6999L466.5 579.6999C 447.9 586.0999 410.7 591.7999 366 595.0999L366 595.0999L366 595.0999C 351.3 596.0999 269 597.1999 260.5 596.3999z" stroke="none" fill="#000000" fill-rule="nonzero" /><path id="2" transform="matrix(1 0 0 -1 0 600)" d="M267.8 409.0999L267.8 409.0999L267.8 409.0999L270 407.8999L270 407.8999L270 371.9999L270 371.9999L270 335.9999L270 335.9999L267.5 335.3999L267.5 335.3999L267.5 335.3999C 266.1 335.0999 259.9 334.9999 253.8 335.1999L253.8 335.1999L253.8 335.1999C 240.1 335.6999 234 337.8999 228 344.6999L228 344.6999L228 344.6999C 220.7 353.0999 217.5 367.4999 219.9 381.4999L219.9 381.4999L219.9 381.4999C 222.5 396.4999 230.5 405.8999 243.9 409.6999L243.9 409.6999L243.9 409.6999C 249.3 411.1999 264.6 410.7999 267.8 409.0999zM269.8 479.7999L269.8 479.7999L269.8 479.7999L269.5 445.4999L269.5 445.4999L266.5 445.9999L266.5 445.9999L266.5 445.9999C 264.9 446.2999 256.8 446.4999 248.5 446.4999L248.5 446.4999L248.5 446.4999C 231.8 446.4999 225.6 445.2999 213.6 439.6999L213.6 439.6999L213.6 439.6999C 199.7 433.3999 188.8 422.5999 182 408.4999L182 408.4999L182 408.4999C 175.6 395.1999 174.5 389.8999 174.5 370.4999L174.5 370.4999L174.5 370.4999C 174.5 351.3999 175.9 344.7999 182.7 331.7999L182.7 331.7999L182.7 331.7999C 187 323.5999 197.8 312.8999 206.5 308.2999L206.5 308.2999L206.5 308.2999C 227.5 297.1999 263.6 294.9999 305 302.4999L305 302.4999L305 302.4999C 309.7 303.2999 313.6 303.9999 313.8 303.9999L313.8 303.9999L313.8 303.9999C 313.9 303.9999 314 351.2999 314 408.9999L314 408.9999L314 513.9999L314 513.9999L292 513.9999L292 513.9999L270 513.9999L270 513.9999L269.8 479.7999z" stroke="none" fill="#000000" fill-rule="nonzero" /><path id="3" transform="matrix(1 0 0 -1 0 600)" d="M340.7 513.2999C 340.3 512.9999 340 502.5999 340 490.2999L340 490.2999L340 467.9999L340 467.9999L362.5 467.9999L362.5 467.9999L385 467.9999L385 467.9999L385 490.9999L385 490.9999L385 513.9999L385 513.9999L363.2 513.9999L363.2 513.9999L363.2 513.9999C 351.2 513.9999 341 513.6999 340.7 513.2999z" stroke="none" fill="#000000" fill-rule="nonzero" /><path id="4" transform="matrix(1 0 0 -1 0 600)" d="M339.7 377.2999C 339.3 303.2999 339.3 302.8999 332.6 288.4999L332.6 288.4999L332.6 288.4999C 326.9 276.3999 318.6 268.0999 305.3 261.1999L305.3 261.1999L305.3 261.1999C 301.3 259.1999 298 257.1999 298 256.7999L298 256.7999L298 256.7999C 298 255.3999 337.5 236.8999 339.5 237.3999L339.5 237.3999L339.5 237.3999C 343.6 238.3999 360 250.0999 364.7 255.3999L364.7 255.3999L364.7 255.3999C 375.4 267.4999 381.8 284.6999 383.9 307.0999L383.9 307.0999L383.9 307.0999C 384.5 313.7999 385 344.5999 385 381.2999L385 381.2999L385 443.9999L385 443.9999L362.6 443.9999L362.6 443.9999L340.1 443.9999L340.1 443.9999L339.7 377.2999z" stroke="none" fill="#000000" fill-rule="nonzero" /><path id="5" transform="matrix(1 0 0 -1 0 600)" d="M192.9 113.0999C 190.5 110.6999 190 109.2999 190 105.4999L190 105.4999L190 105.4999C 190 98.79993 192.2 95.29993 197.1 93.99993L197.1 93.99993L197.1 93.99993C 204.5 91.99993 205 92.59993 205 105.0999L205 105.0999L205 115.9999L205 115.9999L200.4 115.9999L200.4 115.9999L200.4 115.9999C 196.7 115.9999 195.3 115.4999 192.9 113.0999z" stroke="none" fill="#000000" fill-rule="nonzero" /><path id="6" transform="matrix(1 0 0 -1 0 600)" d="M351.4 114.8999C 346.5 112.4999 344.5 103.7999 347.5 98.09993L347.5 98.09993L347.5 98.09993C 349.2 94.79993 350.8 93.99993 356.1 93.99993L356.1 93.99993L360 93.99993L360 93.99993L360 104.9999L360 104.9999L360 115.9999L360 115.9999L356.8 115.8999L356.8 115.8999L356.8 115.8999C 355 115.8999 352.6 115.3999 351.4 114.8999z" stroke="none" fill="#000000" fill-rule="nonzero" /><path id="7" transform="matrix(1 0 0 -1 0 600)" d="M398.2 115.9999C 392.8 113.7999 391.4 100.3999 396.1 95.29993L396.1 95.29993L396.1 95.29993C 399.2 92.09993 404.2 92.19994 406.8 95.49993L406.8 95.49993L406.8 95.49993C 411.1 100.8999 410.3 110.9999 405.3 114.8999L405.3 114.8999L405.3 114.8999C 402.5 117.1999 401.6 117.2999 398.2 115.9999z" stroke="none" fill="#000000" fill-rule="nonzero" /></g></g></svg>